<svg id="レイヤー_1" data-name="レイヤー 1" xmlns="http://www.w3.org/2000/svg" viewBox="0 0 256 256"><circle cx="128" cy="131" r="104" style="fill:#fff;stroke:#294661;stroke-miterlimit:10;stroke-width:19px"/><path d="M203.94,101.1c-1.15,3.79-2.48,6.24-4,7.37q-2.85,2.48-9.87,2.31-4-.09-15.48-2.43-10.41-2.14-11.26-2.48a110,110,0,0,0-17.46-5.33,69.57,69.57,0,0,0-12.79-1.26q-19.52-.45-21.5,6-.81,2.68,6.74,6.67c3.38,1.45,6.73,3,10.08,4.52q19.71,8.55,32.72,22.2,1.17,1.14,2.81,7c1.11,4.26,1.43,7.17.94,8.75q-1.92,6.3-8.69,14.72-8,10-14.71,11.24-2.46.59-17.32,5.47-11.73,4-16.09,3.91c-1.13,0-2.67,0-4.59.05s-3.4.08-4.41,0a36.15,36.15,0,0,1-16.28-4.19c-1-.44-2.88-2.45-5.61-6-2.35-3.13-3.57-4.95-3.66-5.49-.6-1.38-.44-3.55.46-6.49q1.88-5.52,6.42-5.41.57,0,10.92,5.5,10,5.46,15.89,5.45,20.43,0,23.22-9.14,1.5-4.89-5.11-9.49c-3.22-2-6.55-4-10-5.95q-9.41-5.46-22.53-14.33a75.43,75.43,0,0,1-10.16-5.48q-5.75-6.16-7.24-10-1.94-4.33,0-10.48,2.07-6.78,10.64-14.2,8.37-7.42,16.78-9.92a117.68,117.68,0,0,1,38-5.62,84.11,84.11,0,0,1,11,.89l8.76,1.32q10.74,2.31,22,4.32,12.93,2.68,19.49,7.44Q205.73,95.28,203.94,101.1Z" style="fill:#294661"/></svg>